<svg width="165" height="190" viewBox="0 0 165 190" fill="none" xmlns="http://www.w3.org/2000/svg">
<path fill-rule="evenodd" clip-rule="evenodd" d="M82.5 0L102.568 13.4118L124.865 0V24.5882L82.5 49.1765L40.1351 24.5882V0L62.4324 13.4118L82.5 0ZM26.7568 33.5294L53.5135 49.1765L42.3649 55.8824L64.6622 69.2941V84.9412L40.1351 71.5294V87.1765L51.2838 93.8824V114L62.4324 122.941L75.8108 116.235L64.6622 107.294V96.1176L82.5 100.588L100.338 96.1176V107.294L89.1892 116.235L102.568 122.941L113.716 114V93.8824L124.865 87.1765V71.5294L100.338 84.9412V69.2941L122.635 58.1176L111.486 49.1765L138.243 33.5294L151.622 40.2353V55.8824L165 64.8235V87.1765L138.243 71.5294V87.1765L165 102.824V127.412L138.243 111.765V127.412L165 143.059L82.5 190L0 143.059L26.7568 127.412V111.765L0 127.412V102.824L26.7568 87.1765V71.5294L0 87.1765V64.8235L13.3784 55.8824V40.2353L26.7568 33.5294ZM82.5 169.882L100.338 158.706V136.353L82.5 127.412L64.6622 136.353V158.706L82.5 169.882Z" fill="#E66B44"/>
<path d="M82.5 17.8824L95.1133 26.0565L82.5 33.5294L69.8867 26.0565L82.5 17.8824Z" fill="#222222"/>
<path d="M82.5 17.8824L95.1133 26.0565L82.5 33.5294L69.8867 26.0565L82.5 17.8824Z" fill="#222222"/>
</svg>
